PathFileType	4	(X/Y/Z)	Walk2.trc
DataRate	CameraRate	NumFrames	NumMarkers	Units	OrigDataRate	OrigDataStartFrame	OrigNumFrames
200.000000	200.000000	9	61	mm	200.000000	917	1012
Frame#	Times		RCAR		LToe		LTB4		LTB1		RWRR		LMT1		RACR1		LFA1		LUA1		RFA1		LElbow		RFHD		LCAR		LASI		LWRU		LWRR		RLFC		STRN		LACR1		RTH3		RWRU		RToe		C7		RPSI		RMT1		RMT5		LPSI		RMFC		LFHD		RTB3		LTH3		LMFC		RTB2		RTB1		RCAL		LTH4		CLAV		RTB4		RTH2		RMMAL		LMT5		LTH1		RASI		LTH2		RLMAL		LBHD		LTB2		RBHD		LLFC		RUA1		RElbow		LTB3		RTH4		LMMAL		RTH1		LCAL		RBack		T10		LElbowM		LLMAL		RElbowM
			X1	Y1	Z1	X2	Y2	Z2	X3	Y3	Z3	X4	Y4	Z4	X5	Y5	Z5	X6	Y6	Z6	X7	Y7	Z7	X8	Y8	Z8	X9	Y9	Z9	X10	Y10	Z10	X11	Y11	Z11	X12	Y12	Z12	X13	Y13	Z13	X14	Y14	Z14	X15	Y15	Z15	X16	Y16	Z16	X17	Y17	Z17	X18	Y18	Z18	X19	Y19	Z19	X20	Y20	Z20	X21	Y21	Z21	X22	Y22	Z22	X23	Y23	Z23	X24	Y24	Z24	X25	Y25	Z25	X26	Y26	Z26	X27	Y27	Z27	X28	Y28	Z28	X29	Y29	Z29	X30	Y30	Z30	X31	Y31	Z31	X32	Y32	Z32	X33	Y33	Z33	X34	Y34	Z34	X35	Y35	Z35	X36	Y36	Z36	X37	Y37	Z37	X38	Y38	Z38	X39	Y39	Z39	X40	Y40	Z40	X41	Y41	Z41	X42	Y42	Z42	X43	Y43	Z43	X44	Y44	Z44	X45	Y45	Z45	X46	Y46	Z46	X47	Y47	Z47	X48	Y48	Z48	X49	Y49	Z49	X50	Y50	Z50	X51	Y51	Z51	X52	Y52	Z52	X53	Y53	Z53	X54	Y54	Z54	X55	Y55	Z55	X56	Y56	Z56	X57	Y57	Z57	X58	Y58	Z58	X59	Y59	Z59	X60	Y60	Z60	X61	Y61	Z61

917	4.585	1025.1	871.8	371.21	1219.3	39.876	-18.139	1029.6	284.31	-18.821	1030.4	369.26	-22.949	1021.1	914.57	309.64	1162.3	47.674	-7.0271	866.87	1500.1	205.22	874.71	1035.7	-295.68	836.85	1339.3	-242.62	952.09	1044	341.11	798.37	1169.2	-280.48	998.43	1700.7	97.586	908.58	868.66	-312.83	947.85	1035.9	-137.59	837.89	908.46	-308.31	918.94	907.61	-258.04	766.48	507.25	224.57	998.53	1304.1	13.747	848.22	1526.7	-166.48	779.18	634.05	222.93	959.21	899.3	371.58	581.18	33.187	123.32	752.1	1550.8	31.574	709.89	1059.6	56.821	552.4	68.066	108.45	497.94	70.428	190.25	716.49	1066.8	-52.476	779.41	488.96	78.028	1004.2	1709.1	-7.6928	586.61	249.39	125.83	964.89	651.52	-159.8	982.38	510.68	10.29	644.79	304.49	196.06	717.42	360.24	145.59	397.97	219.48	112.61	941.15	732.84	-181.16	923.44	1472.6	6.1954	651.04	301.37	140.16	840.63	718.38	228.93	507.24	196.59	73.095	1124	27.79	-100.86	916.58	814.65	-198.51	924.28	1035.3	174.37	995.41	753.04	-170.21	457.25	199.69	160.84	838.56	1696.1	-36.826	1057	281.87	-75.306	827.44	1687.8	104.45	981.38	508.12	-132.6	870.67	1321.3	280.8	848.65	1159.8	330.65	1032.1	198.96	-15.345	779.74	717.75	226.25	1019.4	95.802	22.77	781.55	805.92	229.77	939.03	44.991	-40.431	705.41	1425.5	152.32	726.13	1193	7.8306	772.07	1144.5	-193.23	1006.3	66.975	-75.942	822.32	1128	243.9
918	4.59	1027.5	871.44	370.55	1219.4	39.479	-18.106	1030.4	284.3	-19.231	1031.5	369.21	-23.443	1024	914.49	309.06	1162.4	47.678	-6.9954	872.02	1501.2	204.54	880.49	1037.2	-296.65	842.2	1340.5	-243.56	955.75	1044.5	340.45	803.7	1170.6	-281.75	1003.6	1701.8	97	915.09	870.23	-313.44	952.99	1037	-137.83	844.2	909.8	-309.09	925.08	909.25	-258.65	777.11	507.51	225.11	1003.8	1305.1	13.167	853.8	1527.9	-167.11	788.28	633.88	223.15	961.87	899.74	370.99	585.02	34.01	124.48	757.4	1551.8	30.806	714.87	1060.4	55.963	557.35	70.407	109.2	502.67	74.299	190.54	721.62	1068	-53.338	790.67	488.85	78.513	1009.4	1710.2	-8.3052	594.71	252.29	125.9	967.44	651.74	-160.33	983.81	510.84	9.7203	653.63	306.5	196.3	727.02	360.95	146.43	405.95	225.38	112.39	944.29	733.22	-181.68	928.74	1473.6	5.599	659.94	303.63	140.05	848.68	719	228.9	514.84	200.42	73.206	1124	27.745	-100.93	920.38	815.23	-199.13	929.15	1036.4	173.76	998.76	753	-170.87	464.66	204.46	160.89	843.74	1697.1	-37.447	1057.7	281.66	-75.752	832.6	1688.8	103.8	982.82	508.2	-133.17	875.52	1322.3	280.07	853.06	1160.9	329.82	1032.5	198.9	-15.617	787.82	717.61	226.2	1019.5	95.842	22.618	788.6	805.84	229.31	939.01	44.961	-40.486	710.58	1426.6	151.5	731.3	1194.1	7.0249	777.18	1145.8	-194.56	1006.3	66.911	-75.986	826.67	1129.3	243.08
919	4.595	1029.9	871.1	369.88	1219.5	39.081	-18.074	1031.1	284.29	-19.627	1032.5	369.17	-23.918	1026.8	914.43	308.49	1162.5	47.675	-6.9631	877.13	1502.2	203.89	886.29	1038.6	-297.64	847.56	1341.8	-244.49	959.4	1045	339.79	809.03	1171.8	-283.03	1008.7	1702.9	96.433	921.64	871.79	-314.07	958.06	1037.9	-138.02	850.54	911.1	-309.89	931.24	910.86	-259.26	787.79	507.81	225.61	1009	1306	12.632	859.39	1528.9	-167.73	797.39	633.78	223.35	964.55	900.19	370.44	589.42	35.08	125.7	762.69	1552.8	30.05	719.79	1061.2	55.122	562.81	72.855	110	507.93	78.264	190.91	726.69	1069.3	-54.176	801.9	488.86	78.941	1014.7	1711.3	-8.9018	603.03	255.18	125.89	970.04	651.98	-160.86	985.2	510.97	9.1609	662.65	308.49	196.45	736.75	361.61	147.31	414.17	231.01	112.1	947.43	733.62	-182.19	934.01	1474.6	5.0378	669	305.99	139.76	856.71	719.68	228.88	522.69	204.16	73.262	1123.9	27.696	-101	924.15	815.8	-199.73	933.88	1037.4	173.22	1002.1	753	-171.46	472.35	209.11	160.89	848.91	1698.1	-38.056	1058.3	281.46	-76.175	837.74	1689.7	103.17	984.26	508.29	-133.72	880.31	1323.4	279.37	857.42	1162	329.03	1033	198.83	-15.879	795.89	717.52	226.15	1019.6	95.894	22.475	795.65	805.78	228.88	938.99	44.932	-40.539	715.69	1427.6	150.66	736.42	1195.2	6.24	782.27	1147.1	-195.93	1006.3	66.85	-76.026	830.94	1130.5	242.31
920	4.6	1032.3	870.78	369.21	1219.5	38.681	-18.043	1031.9	284.29	-20.007	1033.5	369.13	-24.375	1029.6	914.39	307.92	1162.5	47.665	-6.9306	882.19	1503.3	203.29	892.1	1040.1	-298.62	852.92	1342.9	-245.39	963.01	1045.5	339.16	814.36	1173.1	-284.33	1013.8	1703.9	95.885	928.23	873.34	-314.72	963.07	1038.9	-138.17	856.92	912.36	-310.7	937.41	912.45	-259.89	798.49	508.18	226.09	1014.1	1306.9	12.141	864.98	1530	-168.32	806.5	633.74	223.52	967.24	900.64	369.92	594.42	36.399	126.99	767.97	1553.8	29.307	724.67	1061.9	54.304	568.8	75.392	110.82	513.72	82.281	191.35	731.7	1070.5	-54.983	813.07	489.01	79.314	1019.9	1712.4	-9.4825	611.56	258.04	125.8	972.68	652.25	-161.39	986.56	511.07	8.6107	671.86	310.47	196.52	746.59	362.21	148.22	422.63	236.32	111.76	950.6	734.03	-182.69	939.25	1475.6	4.511	678.22	308.41	139.31	864.72	720.41	228.86	530.81	207.8	73.267	1123.9	27.644	-101.06	927.9	816.37	-200.29	938.47	1038.5	172.76	1005.4	753.06	-171.99	480.32	213.61	160.85	854.05	1699	-38.651	1058.9	281.26	-76.572	842.85	1690.6	102.55	985.69	508.37	-134.26	885.05	1324.4	278.71	861.73	1163.1	328.29	1033.4	198.77	-16.127	803.95	717.49	226.07	1019.7	95.955	22.342	802.68	805.77	228.46	938.98	44.905	-40.589	720.75	1428.6	149.8	741.5	1196.2	5.4777	787.34	1148.3	-197.33	1006.3	66.794	-76.064	835.13	1131.6	241.59
921	4.605	1034.7	870.48	368.55	1219.6	38.281	-18.014	1032.5	284.28	-20.37	1034.4	369.09	-24.813	1032.4	914.36	307.36	1162.6	47.65	-6.8984	887.2	1504.3	202.73	897.94	1041.5	-299.62	858.29	1344.1	-246.26	966.6	1045.9	338.55	819.7	1174.2	-285.63	1018.9	1705	95.355	934.86	874.87	-315.38	968.02	1039.8	-138.3	863.32	913.58	-311.53	943.6	914.02	-260.51	809.22	508.61	226.52	1019.2	1307.7	11.694	870.56	1530.9	-168.88	815.6	633.79	223.66	969.95	901.09	369.42	600.04	37.957	128.31	773.23	1554.8	28.58	729.5	1062.7	53.515	575.33	78	111.68	520.06	86.307	191.85	736.65	1071.7	-55.753	824.17	489.29	79.634	1025.1	1713.4	-10.047	620.3	260.84	125.65	975.36	652.55	-161.92	987.9	511.16	8.0678	681.23	312.43	196.53	756.56	362.76	149.17	431.3	241.3	111.36	953.79	734.46	-183.17	944.47	1476.5	4.0175	687.59	310.87	138.75	872.7	721.21	228.86	539.19	211.3	73.23	1123.8	27.589	-101.12	931.64	816.96	-200.82	942.94	1039.6	172.36	1008.7	753.15	-172.46	488.56	217.93	160.75	859.19	1699.9	-39.233	1059.5	281.07	-76.939	847.95	1691.5	101.95	987.14	508.46	-134.78	889.74	1325.3	278.09	866	1164.1	327.6	1033.8	198.7	-16.364	812.01	717.5	225.98	1019.7	96.023	22.217	809.7	805.8	228.06	938.96	44.88	-40.637	725.76	1429.6	148.91	746.54	1197.2	4.7388	792.4	1149.4	-198.74	1006.3	66.741	-76.1	839.25	1132.7	240.92
922	4.61	1037.1	870.21	367.89	1219.7	37.883	-17.989	1033.2	284.28	-20.714	1035.4	369.06	-25.234	1035.2	914.35	306.8	1162.6	47.631	-6.8674	892.18	1505.2	202.21	903.8	1042.9	-300.6	863.68	1345.2	-247.11	970.15	1046.4	337.96	825.06	1175.4	-286.93	1024	1706	94.844	941.52	876.39	-316.06	972.9	1040.7	-138.41	869.76	914.77	-312.36	949.81	915.58	-261.15	819.96	509.12	226.92	1024.3	1308.5	11.29	876.14	1531.8	-169.41	824.7	633.91	223.77	972.68	901.54	368.95	606.29	39.728	129.64	778.47	1555.8	27.868	734.3	1063.5	52.759	582.4	80.652	112.55	526.94	90.296	192.41	741.54	1072.9	-56.483	835.19	489.7	79.906	1030.2	1714.5	-10.595	629.24	263.59	125.46	978.07	652.87	-162.44	989.21	511.21	7.5293	690.76	314.36	196.48	766.63	363.25	150.16	440.17	245.93	110.91	956.99	734.91	-183.64	949.67	1477.3	3.5565	697.11	313.33	138.11	880.65	722.08	228.86	547.82	214.65	73.162	1123.8	27.534	-101.17	935.38	817.55	-201.32	947.27	1040.6	172.04	1012	753.26	-172.88	497.06	222.05	160.62	864.3	1700.7	-39.8	1060.1	280.88	-77.278	853.04	1692.4	101.36	988.59	508.55	-135.28	894.37	1326.2	277.51	870.21	1165.1	326.94	1034.2	198.63	-16.588	820.06	717.58	225.87	1019.8	96.095	22.102	816.7	805.87	227.68	938.94	44.858	-40.683	730.73	1430.5	148.02	751.53	1198.2	4.0236	797.45	1150.4	-200.17	1006.3	66.693	-76.134	843.29	1133.8	240.29
923	4.615	1039.6	869.96	367.24	1219.8	37.487	-17.968	1033.9	284.28	-21.04	1036.3	369.02	-25.641	1038	914.34	306.24	1162.7	47.609	-6.8385	897.12	1506.1	201.72	909.68	1044.2	-301.58	869.08	1346.2	-247.93	973.68	1046.9	337.4	830.43	1176.5	-288.23	1029	1707	94.35	948.21	877.89	-316.75	977.73	1041.5	-138.52	876.24	915.92	-313.19	956.05	917.12	-261.8	830.69	509.72	227.28	1029.4	1309.2	10.927	881.72	1532.7	-169.92	833.77	634.11	223.83	975.42	901.98	368.51	613.19	41.679	130.96	783.7	1556.7	27.175	739.05	1064.2	52.041	590	83.323	113.44	534.36	94.204	193	746.38	1074	-57.167	846.12	490.24	80.133	1035.4	1715.5	-11.125	638.38	266.25	125.23	980.79	653.2	-162.96	990.48	511.25	6.9921	700.43	316.26	196.38	776.82	363.69	151.18	449.25	250.18	110.43	960.22	735.37	-184.1	954.84	1478.1	3.1266	706.77	315.75	137.44	888.57	723.01	228.86	556.72	217.84	73.072	1123.8	27.479	-101.23	939.13	818.15	-201.8	951.49	1041.6	171.78	1015.4	753.4	-173.24	505.82	225.94	160.46	869.41	1701.5	-40.353	1060.6	280.7	-77.591	858.11	1693.2	100.78	990.06	508.64	-135.76	898.95	1327.1	276.95	874.36	1166	326.33	1034.5	198.57	-16.802	828.08	717.72	225.73	1019.8	96.169	21.994	823.68	805.99	227.3	938.93	44.839	-40.727	735.64	1431.4	147.12	756.48	1199.2	3.3317	802.51	1151.4	-201.6	1006.3	66.648	-76.167	847.25	1134.8	239.7
924	4.62	1042	869.73	366.6	1219.8	37.098	-17.95	1034.5	284.27	-21.35	1037.2	369	-26.037	1040.8	914.36	305.7	1162.8	47.585	-6.8125	902.02	1507	201.27	915.59	1045.5	-302.56	874.49	1347.2	-248.72	977.18	1047.3	336.85	835.83	1177.6	-289.51	1034.1	1708	93.873	954.92	879.38	-317.47	982.5	1042.3	-138.64	882.74	917.03	-314.03	962.32	918.65	-262.46	841.4	510.4	227.59	1034.4	1309.9	10.605	887.27	1533.5	-170.4	842.83	634.38	223.84	978.18	902.41	368.09	620.72	43.768	132.24	788.9	1557.6	26.5	743.77	1064.9	51.363	598.14	85.982	114.31	542.31	97.989	193.62	751.16	1075.1	-57.805	856.97	490.88	80.321	1040.6	1716.4	-11.636	647.72	268.8	124.98	983.51	653.54	-163.47	991.72	511.27	6.454	710.24	318.13	196.26	787.11	364.09	152.21	458.51	254.04	109.93	963.45	735.83	-184.55	959.98	1478.9	2.7267	716.56	318.09	136.76	896.46	724.01	228.87	565.86	220.83	72.969	1123.7	27.425	-101.29	942.88	818.76	-202.26	955.59	1042.7	171.57	1018.7	753.54	-173.58	514.82	229.59	160.27	874.52	1702.3	-40.891	1061.2	280.52	-77.882	863.17	1694	100.22	991.53	508.72	-136.23	903.48	1327.9	276.43	878.46	1166.9	325.76	1034.9	198.5	-17.008	836.09	717.92	225.57	1019.9	96.241	21.894	830.64	806.15	226.92	938.92	44.823	-40.769	740.52	1432.3	146.22	761.38	1200.1	2.6624	807.58	1152.4	-203.02	1006.3	66.607	-76.199	851.13	1135.8	239.15
925	4.625	1044.5	869.53	365.97	1219.9	36.717	-17.936	1035.2	284.26	-21.646	1038.1	368.97	-26.426	1043.6	914.38	305.16	1162.8	47.56	-6.7905	906.89	1507.8	200.85	921.52	1046.8	-303.51	879.91	1348.1	-249.48	980.65	1047.7	336.33	841.25	1178.6	-290.77	1039.1	1708.9	93.412	961.66	880.85	-318.19	987.22	1043	-138.79	889.26	918.12	-314.87	968.62	920.16	-263.14	852.08	511.17	227.86	1039.3	1310.5	10.321	892.81	1534.3	-170.86	851.86	634.73	223.81	980.95	902.84	367.69	628.88	45.951	133.47	794.09	1558.5	25.845	748.46	1065.7	50.726	606.78	88.598	115.16	550.78	101.61	194.25	755.9	1076.1	-58.395	867.73	491.63	80.475	1045.7	1717.3	-12.127	657.26	271.23	124.72	986.21	653.88	-163.97	992.94	511.27	5.916	720.17	319.96	196.13	797.51	364.45	153.23	467.95	257.5	109.43	966.69	736.3	-184.99	965.11	1479.6	2.3556	726.47	320.32	136.13	904.31	725.06	228.88	575.24	223.63	72.861	1123.7	27.373	-101.34	946.62	819.37	-202.69	959.6	1043.7	171.43	1022	753.67	-173.89	524.07	232.96	160.06	879.61	1703.1	-41.413	1061.8	280.34	-78.156	868.23	1694.7	99.676	993.01	508.8	-136.69	907.96	1328.6	275.95	882.5	1167.7	325.23	1035.3	198.43	-17.207	844.08	718.18	225.37	1020	96.311	21.801	837.57	806.36	226.55	938.9	44.811	-40.809	745.37	1433.2	145.34	766.25	1201.1	2.0146	812.67	1153.3	-204.43	1006.3	66.569	-76.232	854.94	1136.7	238.62
